<?xml version="1.0" encoding="UTF-8" standalone="no"?><!DOCTYPE svg PUBLIC "-//W3C//DTD SVG 1.1//EN" "http://www.w3.org/Graphics/SVG/1.1/DTD/svg11.dtd">
<svg width="100%" height="100%" viewBox="0 0 13 14" version="1.1" xmlns="http://www.w3.org/2000/svg"
     xml:space="preserve"
     style="fill-rule:evenodd;clip-rule:evenodd;stroke-linejoin:round;stroke-miterlimit:2;"><g><path d="M12.346,5.278c-0.146,-1.995 -0.725,-2.611 -3.022,-2.611l-3.415,8.466l-4.57,0c-0.356,0.001 -0.697,0.143 -0.948,0.395c-0.251,0.252 -0.392,0.593 -0.391,0.949c-0.001,0.356 0.14,0.697 0.391,0.949c0.251,0.252 0.592,0.394 0.948,0.395l5.499,0c0.731,-0.001 1.455,-0.147 2.13,-0.428c0.674,-0.281 1.287,-0.692 1.803,-1.21c0.517,-0.518 0.925,-1.132 1.204,-1.808c0.279,-0.676 0.421,-1.4 0.42,-2.131l0,-2.966l-0.049,0Z" style="fill:#141a33;fill-rule:nonzero;"/><path d="M6.839,0l-5.448,0c-0.183,0 -0.364,0.036 -0.533,0.106c-0.168,0.071 -0.322,0.173 -0.451,0.303c-0.129,0.129 -0.232,0.283 -0.301,0.452c-0.07,0.169 -0.106,0.35 -0.106,0.532l0,11.028c0,0.009 0.001,0.018 0.001,0.026c0.007,-0.35 0.15,-0.684 0.4,-0.93c0.25,-0.246 0.587,-0.384 0.938,-0.385l5.499,0c1.475,-0.001 2.889,-0.588 3.931,-1.632c1.042,-1.044 1.627,-2.459 1.626,-3.934c0.001,-1.474 -0.584,-2.889 -1.626,-3.933c-1.041,-1.044 -2.455,-1.631 -3.93,-1.633Z" style="fill:#ff1a41;fill-rule:nonzero;"/></g></svg>
